<?xml version="1.0" encoding="UTF-8"?><svg id="Layer_1" xmlns="http://www.w3.org/2000/svg" viewBox="0 0 484.37 592.8"><defs><style>.cls-1{fill:#fff;}</style></defs><path class="cls-1" d="M241.45,276.42c-1.41,.9-60.96,39.2-129.41,116.75-5.28,5.98-10.69,12.3-16.22,18.95-3.97,4.78-11.12,5.29-15.72,1.13l-.03-.02c-4.34-3.92-4.82-10.57-1.08-15.07,5.68-6.84,11.24-13.32,16.66-19.46,71.65-81.18,133.36-120.29,134.17-120.8,14.97-9.31,20.02-28.67,11.49-44.09-.26-.47-.54-.95-.83-1.41-9.61-15.51-30.04-20.31-45.54-10.71-1.16,.72-13.12,8.21-32.28,22.96-4.84,3.73-11.8,2.75-15.43-2.16-3.53-4.78-2.6-11.51,2.11-15.14,20.19-15.56,32.87-23.49,34.08-24.24,25.76-15.95,59.69-7.98,75.65,17.79,.47,.77,.94,1.56,1.37,2.34,14.14,25.58,5.8,57.71-18.99,73.19Zm-132.99,245.51c4.95,3.62,11.9,2.46,15.42-2.56,2.8-3.99,5.59-7.87,8.37-11.69v-36.25c-8.61,10.98-17.41,22.75-26.29,35.41-3.41,4.87-2.3,11.58,2.5,15.09ZM307.6,255.55c1.65-6.1-2.24-12.31-8.44-13.53-5.6-1.11-11.16,2.27-12.64,7.78-4.88,18.08-16.33,34.41-33.36,45.09-1.48,.96-32.14,20.97-73.81,60.17-4.45,4.19-4.59,11.22-.32,15.59l.03,.03c1.52,1.55,3.39,2.54,5.36,2.99,1.95-.04,3.7-.08,5.23-.12,1.7-.45,3.33-1.27,4.7-2.56,39.52-37.14,68.82-56.53,70.58-57.69,21.75-13.71,36.39-34.61,42.65-57.75Zm-26.11,86.36h0c-3.5-5.09-10.5-6.28-15.47-2.63-12.27,9-33.88,25.93-59.84,50.64l12.26,18.54c26.45-25.44,48.46-42.68,60.51-51.53,4.76-3.5,5.9-10.14,2.55-15.01Zm93.78-202.17c-1.47-2.66-3.03-5.33-4.64-7.92-18.44-29.77-43.97-52.52-73.06-67.44-5.74-2.94-12.76-.32-15.15,5.67v.02c-2.08,5.21,.11,11.17,5.1,13.72,25.69,13.17,48.24,33.25,64.52,59.54,1.42,2.29,2.79,4.64,4.1,6.99,21.8,39.44,25.65,84.28,14.04,124.77-1.58,5.5,1.41,11.27,6.79,13.22,5.96,2.16,12.49-1.2,14.23-7.3,13.12-45.86,8.75-96.63-15.92-141.26Zm-76.78,188.51c4.18,4.96,11.73,5.21,16.24,.55,35.91-37.14,49.02-91.46,33.71-141.03-1.87-6.07-8.46-9.31-14.39-7.02h0c-5.39,2.08-8.2,7.97-6.5,13.49,12.97,41.97,1.87,87.92-28.53,119.35-3.9,4.04-4.15,10.36-.53,14.66Zm70.99-20.21c-5.23-3.04-11.93-1.25-14.95,3.99-12.8,22.21-30.95,41.7-53.92,56.33-2.36,1.58-36.75,28.44-70.01,58.5l12.21,18.46c32.48-29.57,67.36-57.04,69.78-58.67,25.95-16.58,46.45-38.65,60.9-63.8,2.98-5.19,1.15-11.82-4.02-14.82Z"/><g><path class="cls-1" d="M24.73,.56H8.04V13C14.06,8.4,19.66,4.24,24.73,.56Z"/><path class="cls-1" d="M8.04,40.65v28.02C49.36,34.83,77.66,17.11,79.79,15.79c9.29-5.76,18.82-10.83,28.52-15.23H63.05c-8.94,5.85-28.63,19.25-55.01,40.09Z"/><path class="cls-1" d="M129.39,27.62c-2.33-5.87-9.13-8.55-14.84-5.86-7.89,3.72-15.65,7.92-23.24,12.62-2.29,1.42-35.77,22.37-83.27,62.72v28.88C61.52,78.8,100.38,54.48,102.82,52.97c6.87-4.26,13.9-8.06,21.04-11.42,5.23-2.46,7.65-8.55,5.53-13.92h0Z"/><path class="cls-1" d="M14.04,149.9c-1.97,1.78-3.99,3.65-6,5.49v29.92c7.07-6.76,13.98-13.18,20.65-19.21,4.34-3.92,4.81-10.58,1.06-15.08-3.97-4.77-11.11-5.28-15.72-1.12Z"/><path class="cls-1" d="M245.2,46.7c-43.67-7.86-90.27-.28-130.87,24.87-2.02,1.25-29.81,18.64-70.34,52.36-4.62,3.85-5.28,10.7-1.46,15.34,3.84,4.67,10.76,5.32,15.41,1.46,39.2-32.62,65.96-49.37,67.91-50.57,35.82-22.19,76.94-28.88,115.47-21.95,5.98,1.08,11.7-2.88,12.74-8.87v-.02c1.03-5.93-2.93-11.55-8.86-12.62Z"/><path class="cls-1" d="M137.36,108.74c-2.44,1.51-45.19,28.27-102.52,81.33-4.43,4.11-4.71,11.03-.6,15.46h0c4.1,4.42,11,4.68,15.42,.59,55.63-51.52,96.85-77.32,99.21-78.79,45.55-28.21,102.76-22.3,141.58,10.65,4.43,3.76,11.06,3.31,15.02-.95h.01c4.22-4.56,3.82-11.73-.91-15.74-45.85-38.9-113.41-45.87-167.21-12.55Z"/><path class="cls-1" d="M10.22,229.47c-.66-.68-1.41-1.21-2.18-1.68v19.31c.74-.78,1.51-1.61,2.25-2.38,4.11-4.27,4.09-11.03-.06-15.26h0Z"/><path class="cls-1" d="M141.28,158.1c-28.27,21.42-83.78,67.36-133.24,121.05v32.95c1.76-2.02,3.45-4.11,5.22-6.11,51.06-57.85,111.81-108.21,141.2-130.47,4.65-3.52,5.71-10.06,2.42-14.87-3.52-5.14-10.63-6.31-15.59-2.54Z"/><path class="cls-1" d="M107.47,242.13c-23.05,20.51-49.75,46.53-77.81,78.32-7.36,8.33-14.53,16.84-21.62,25.45v34.96c12.23-15.74,24.89-31.08,38.01-45.94,27.49-31.15,53.54-56.54,75.94-76.48,4.39-3.91,4.91-10.6,1.16-15.13-3.95-4.77-11.06-5.29-15.68-1.18Z"/><path class="cls-1" d="M81.96,344.93c-4.58-4.38-11.89-4.1-16.11,.63-1.13,1.27-2.27,2.54-3.4,3.83-19.12,21.66-37.24,44.36-54.41,67.88v39.06c24.64-36.36,49.13-67.07,71.22-92.1,1.11-1.25,2.21-2.49,3.31-3.72,4.03-4.51,3.77-11.4-.6-15.58h0Z"/><path class="cls-1" d="M61.34,438.54h0c-4.85-3.79-11.88-2.83-15.52,2.13-12.49,17.03-25.18,35.66-37.78,55.75v22.01c5.04,2.68,11.37,1.08,14.42-3.88,13.63-22.16,27.42-42.45,40.97-60.92,3.5-4.77,2.59-11.46-2.08-15.1Z"/><path class="cls-1" d="M127.36,592.74c1.63-2.78,3.26-5.57,4.9-8.28v-40.78c-10.11,15.2-20.22,31.54-30.13,49.05h25.24Z"/><path class="cls-1" d="M90.71,549.34c-5.16-3.06-11.82-1.4-14.93,3.73-7.64,12.58-15.2,25.83-22.63,39.67h24.95c5.41-9.75,10.86-19.27,16.37-28.34,3.16-5.2,1.46-11.96-3.76-15.06Z"/><path class="cls-1" d="M322.83,418.66c-3.7-5.13-10.96-6.05-15.84-2.02-14.56,12.03-32.44,28.03-51.57,47.76l12.35,18.67c19.75-20.68,38.29-37.28,53.17-49.57,4.44-3.67,5.28-10.16,1.9-14.83v-.02Z"/><path class="cls-1" d="M297.51,528.05c31.68-39.49,64.1-71.2,93.83-96.24l-11.42-18.98c-30.03,25.03-62.83,56.77-95.03,96.13l12.62,19.09Z"/><path class="cls-1" d="M405.08,454.63c-5.03,4.74-10.18,9.37-15.59,13.79-4.59,3.74-5.31,10.48-1.67,15.15,3.77,4.85,10.8,5.62,15.56,1.74,4.54-3.71,8.93-7.58,13.24-11.52l-11.54-19.16Z"/><path class="cls-1" d="M438.32,509.84l-11.35-18.85c-29.21,22.6-61.93,52.29-94.18,90.42l7.5,11.34h11.57c29.61-34.6,59.53-61.88,86.46-82.91Z"/><path class="cls-1" d="M373.03,491.82h0c-3.71-5-10.82-5.91-15.66-1.99-12.82,10.37-31.85,27-52.68,49.08l12.39,18.74c21.42-23.15,41.18-40.4,54.06-50.83,4.55-3.68,5.38-10.3,1.89-15Z"/><path class="cls-1" d="M416.21,583.23c4.41-3.83,5.02-10.47,1.38-15.05h-.01c-3.87-4.89-11.02-5.55-15.72-1.47-7.9,6.85-17.43,15.63-27.62,26.03h31.37c3.77-3.49,7.35-6.69,10.6-9.51Z"/><path class="cls-1" d="M450.52,530.11c-5.64,4.34-11.38,8.57-17.27,12.61-4.86,3.32-6.25,9.88-3.12,14.86h0c3.29,5.24,10.29,6.73,15.39,3.24,5.57-3.81,10.99-7.79,16.34-11.86l-11.34-18.84Z"/><path class="cls-1" d="M484.37,586.34l-11.34-18.84c-8.05,6.21-16.29,12.23-24.82,17.89-.18,.12-.35,.24-.51,.36-1.48,1.12-4.6,3.52-8.83,7h37.04c2.87-2.08,5.66-4.26,8.47-6.41Z"/><path class="cls-1" d="M298.72,182.07c-.78-1.41-1.61-2.83-2.46-4.2-25.6-41.33-76.97-57.18-120.61-39.66-6,2.41-8.66,9.42-5.71,15.17,2.6,5.06,8.62,7.23,13.9,5.12,33.96-13.6,73.91-1.27,93.83,30.89,.66,1.07,1.31,2.17,1.92,3.27,2.79,5.04,4.94,10.26,6.5,15.57,1.5,5.12,6.43,8.44,11.73,7.84h0c6.72-.76,11.19-7.38,9.3-13.88-2-6.87-4.79-13.61-8.38-20.12Z"/><path class="cls-1" d="M206.45,220.28c-2.11,1.31-41.72,26.12-95.45,78.19-4.37,4.24-4.59,11.18-.47,15.67h0c4.27,4.66,11.55,4.87,16.09,.48,52.38-50.68,91.14-74.96,91.64-75.27,5.26-3.26,6.89-10.17,3.63-15.44-3.26-5.26-10.17-6.89-15.44-3.63Z"/><path class="cls-1" d="M177.23,13.61v-.02c-.8-6.06,3.52-11.63,9.6-12.28,85.22-9.16,172.32,29.88,220.4,107.5,1.98,3.2,3.91,6.49,5.72,9.78,14,25.32,22.69,52.26,26.43,79.48,.86,6.28-3.86,11.95-10.19,12.32h0c-5.71,.33-10.68-3.79-11.46-9.45-3.4-24.57-11.27-48.89-23.92-71.77-1.64-2.97-3.39-5.95-5.18-8.85C345.12,50.08,266.3,14.76,189.18,23.05c-5.88,.63-11.18-3.57-11.95-9.44Z"/><path class="cls-1" d="M432.15,255.11h.05c5.99,1.01,10.03,6.73,8.92,12.7-10.17,54.95-40.13,106.01-86.94,141.51-4.91,3.73-11.95,2.61-15.49-2.44l-.05-.07c-3.37-4.8-2.31-11.4,2.36-14.95,42.32-32.11,69.41-78.26,78.62-127.93,1.09-5.87,6.63-9.81,12.52-8.83Z"/><path class="cls-1" d="M24.81,592.8c47.55-87.26,101.85-151.96,145.74-195.79l.07-.07c4.02-4.01,4.1-10.5,.16-14.59l-.74-.77c-4.03-4.18-10.7-4.26-14.81-.16l-.12,.12C108.34,428.23,50.05,498.01,0,592.8H24.81Z"/></g></svg>